<?xml version="1.0" standalone="no"?><!DOCTYPE svg PUBLIC "-//W3C//DTD SVG 1.1//EN" "http://www.w3.org/Graphics/SVG/1.1/DTD/svg11.dtd"><svg t="1582854246318" class="icon" viewBox="0 0 1024 1024" version="1.1" xmlns="http://www.w3.org/2000/svg" p-id="2895" xmlns:xlink="http://www.w3.org/1999/xlink" width="128" height="128"><defs><style type="text/css">@font-face { font-family: element-icons; src: url("chrome-extension://moombeodfomdpjnpocobemoiaemednkg/fonts/element-icons.woff") format("woff"), url("chrome-extension://moombeodfomdpjnpocobemoiaemednkg/fonts/element-icons.ttf ") format("truetype"); }
</style></defs><path d="M767.510435 452.92986c-11.761727-131.969735-122.981197-235.757546-257.95522-235.757545-134.974023 0-246.169167 103.775648-257.930894 235.757545H166.543373v26.126359h84.034921c0.133794 12.357719 1.131169 24.532991 2.955636 36.404186 2.262338 14.82683 5.78964 29.240115 10.472437 43.142548 12.86857 38.18 34.397273 72.443478 62.250792 100.369977-1.751488 10.217012-2.651558 20.701612-2.651557 31.405148 0 9.803466 0.754113 19.436648 2.238012 28.838732a182.896673 182.896673 0 0 0 9.268289 35.552768c12.491513 33.776954 34.54323 62.94409 62.858948 84.253857 6.981625 5.278789 14.364632 10.046728 22.06388 14.31598a184.576398 184.576398 0 0 0 44.042619 17.356757c7.188398 1.824466 14.571405 3.211061 22.06388 4.14762 7.674922 0.973049 15.495801 1.471736 23.426148 1.471736 6.957298 0 13.829455-0.389219 20.592144-1.155495 7.492475-0.802765 14.875483-2.079892 22.06388-3.782727 15.520127-3.648933 30.298305-9.243963 44.042619-16.529666 7.699248-4.062478 15.082255-8.647971 22.06388-13.744313 31.928162-23.073418 56.278706-56.071933 68.478304-94.39789 3.867869-12.077967 6.507263-24.691112 7.796553-37.693476 0.620319-6.130207 0.948723-12.357719 0.948723-18.658209 0-10.703536-0.90007-21.188136-2.651558-31.405148 23.559943-23.632921 42.607372-51.766193 55.70704-83.001057 6.276164-14.960624 11.177897-30.638872 14.547079-46.876623 3.393507-16.189098 5.230137-32.90121 5.40042-50.039031h88.924492v-26.126359h-89.970519zM509.555215 240.23357c122.263574 0 223.120075 93.449168 234.808823 212.69629H274.770718c11.688748-119.247123 112.545249-212.69629 234.784497-212.69629z m-111.596527 568.68617a162.67672 162.67672 0 0 1-31.697062-41.159961c10.217012 3.661096 20.798917 6.945135 31.697062 9.803466v31.356495z m0-56.461153c-16.067467-4.88957-31.198375-10.885983-45.18595-17.818955-3.9895-14.08488-6.105881-28.936037-6.105881-44.273717 0-4.244925 0.15812-8.441198 0.486524-12.613144 15.56878 12.564492 32.597133 23.377496 50.81747 32.098445v42.607371z m66.106499 94.349238a162.163437 162.163437 0 0 1-44.042619-20.409697v-43.787193c14.255164 2.882657 28.960363 4.999038 44.042619 6.361306v57.835584z m0-81.140101c-15.167397-1.569041-29.909086-4.013826-44.042619-7.285703v-39.201701c14.133533 5.254463 28.863058 9.268289 44.042619 11.9685v34.518904z m66.082172 86.29726c-6.750526 0.851418-13.622682 1.28929-20.592144 1.289289-7.954673 0-15.775553-0.571666-23.426148-1.678509v-61.192602a421.069812 421.069812 0 0 0 44.018292-0.498688v62.08051z m0-85.23907c-8.87907 0.620319-17.867607 0.948723-27.002102 0.948723-5.716661 0-11.38467-0.121631-17.01619-0.38922v-33.180962c7.723574 0.717623 15.520127 1.05819 23.426148 1.058191 6.945135 0 13.792966-0.279752 20.592144-0.827091v32.390359z m66.106498 61.49668c-13.464562 8.502013-28.291392 15.106582-44.042618 19.36367v-59.623561c15.130908-1.727162 29.836107-4.244925 44.042618-7.468149v47.72804z m0-72.33401c-14.08488 3.709748-28.826569 6.616731-44.042618 8.599318v-32.852558c15.167397-2.517764 29.884759-6.33698 44.042618-11.38467v35.63791z m22.06388 55.634061v-36.708263c13.148321-3.807053 25.749302-8.258751 37.766455-13.282115a163.314067 163.314067 0 0 1-37.766455 49.990378z m50.075521-84.862012c-15.143071 8.806091-31.952488 16.395871-50.075521 22.57473v-38.046205a258.118205 258.118205 0 0 0 53.675801-33.436387c0.328404 4.171946 0.486524 8.368219 0.486525 12.613144 0 12.467187-1.410921 24.618133-4.086805 36.294718z m75.301809-221.210467a229.899792 229.899792 0 0 1-8.48985 39.724714c-9.985913 32.621459-26.856145 62.250793-48.944352 87.173004-5.838292 6.592405-12.041478 12.86857-18.58523 18.792004-14.875483 13.440236-31.4538 25.043842-49.370061 34.34862-7.151908 3.758401-14.498426 7.127582-22.06388 10.119707a232.278896 232.278896 0 0 1-44.042618 12.613144c-7.23705 1.337942-14.595731 2.335317-22.06388 2.979962a236.954395 236.954395 0 0 1-44.018292-0.255425c-7.443823-0.74195-14.82683-1.824466-22.06388-3.247551a232.631626 232.631626 0 0 1-44.042619-13.257789 227.267695 227.267695 0 0 1-22.06388-10.44811 236.68924 236.68924 0 0 1-46.511729-32.852558 231.601411 231.601411 0 0 1-18.585231-18.792004c-25.068168-28.291392-43.434463-62.640012-52.617611-100.552424-2.979962-12.175272-4.974712-24.691112-5.94776-37.511029-0.389219-5.023364-0.620319-10.095381-0.668971-15.240375h471.855658c-0.072979 8.927722-0.693297 17.733813-1.775814 26.40611z" p-id="2896" fill="#3e95ca"></path><path d="M357.139294 537.07425c0-32.049793 25.980401-58.018031 58.018031-58.018031 32.049793 0 58.018031 25.980401 58.01803 58.018031 0 32.049793-25.980401 58.018031-58.01803 58.01803-32.03763 0-58.018031-25.968238-58.018031-58.01803zM550.812481 537.07425c0-32.049793 25.980401-58.018031 58.018031-58.018031 32.049793 0 58.018031 25.980401 58.018031 58.018031 0 32.049793-25.980401 58.018031-58.018031 58.01803-32.03763 0-58.018031-25.968238-58.018031-58.01803z" p-id="2897" fill="#3e95ca"></path><path d="M512 670.418416m-15.56878 0a15.56878 15.56878 0 1 0 31.13756 0 15.56878 15.56878 0 1 0-31.13756 0Z" p-id="2898" fill="#3e95ca"></path></svg>